Patient5_TMGait_0pt45_1_right_03_EMG.mot
version=1
nRows=19
nColumns=33
inDegrees=no
endheader
time	1LAddLong	2LGlutMax	3LGlutMed	4LIliopsoas	5LSemiMemb	6LBicFemLong	7LRecFem	8LTensFascLat	9LVastMed	10LVasLat	11LGasMed	12lGasLat	13LTibAnt	14LPeroneusLong	15LSol	16LTibPost	17RAddLong	18RGlutMax	19RGlutMed	20RIliopsoas	21RSemiMemb	22RBicFemLong	23RRecFem	24RTensFascLat	25RVastMed	26RVasLat	27RGasMed	28RGasLat	29RTibAnt	30RPeroneusLong	31RSol	32RTibPost
5.052	0.013123	0.011597	0.010071	-0.032806	0.015259	-0.040131	-0.002136	-0.34973	0.004425	0.000305	-0.011902	0.010529	0.00473	0.012207	0.013123	0.14954	0.002441	-0.012054	-0.033112	0.066833	0.056915	0.61661	-0.008392	0.37491	-0.046387	0.082245	0.030823	-0.003204	-0.000458	-0.010223	-0.030823	-0.013885
5.053	0.040283	0.006256	0.003967	-0.012054	0.018311	-0.036316	-0.00885	-0.36819	0.006256	-0.000458	-0.007324	0.001678	0.004578	0.011749	0.01236	-0.067291	0.005646	-0.007477	0.053406	-0.033722	-0.16205	0.28656	0	0.28107	-0.055695	0.012817	-0.050049	-0.039825	-0.005798	-0.018311	0.038757	-0.020905
5.054	-0.038757	0.004578	-0.009766	-0.000458	0.011444	-0.029144	-0.022736	-0.37048	0.006409	0.002899	-0.013275	0.011292	0.005035	0.011749	0.013733	0.089264	-0.013428	-0.004883	0.33814	-0.019836	-0.18982	0.24216	0.001221	0.21805	-0.025787	-0.015411	-0.010681	-0.10574	-0.004425	-0.016174	0.045471	-0.016785
5.055	-0.025177	0.00412	0.004425	-0.002289	0.0177	-0.019989	-0.004425	-0.39169	0.000763	0.002747	-0.01358	0.013733	0.005646	0.010223	0.004425	0.15228	-0.017242	0.002289	0.5397	0.018311	0.044861	0.20721	-0.011444	0.23041	-0.025177	-0.044403	-0.023041	-0.12405	-0.011902	-0.016479	0.053558	-0.010834
5.056	0.02533	0.009308	0.005493	0.005493	0.024261	-0.022125	-0.006561	-0.39551	-0.001068	0.003204	-0.013733	0.015717	0.00946	0.014191	0.010681	0.03891	-0.025787	0.004425	0.48172	0.11597	0.19928	-0.055084	-0.019379	0.16876	-0.022736	0.001678	-0.025024	-0.095978	-0.005341	-0.017395	0.022583	0.002289
5.057	-0.10605	0.010223	-0.000763	0.035706	0.005035	-0.0177	-0.019226	-0.40924	0.002747	0.007935	-0.008087	0.010071	0.013275	0.010071	0.011139	0.11063	-0.031281	0.002289	0.37888	0.1297	0.21896	-0.19913	-0.014648	0.024414	-0.04715	0.10101	-0.003662	-0.082397	-0.004578	-0.020752	-0.002441	0.00473
5.058	-0.24963	0.010529	-0.015411	-0.003967	0.002441	-0.028076	-0.010223	-0.4129	0.003052	0.014343	-0.012054	0.011597	0.006104	0.009918	0.018616	-0.003357	-0.054626	0.000763	0.33829	0.099792	0.18799	-0.27039	-0.01297	-0.090637	-0.047302	0.15945	-0.012817	-0.088654	-0.003967	-0.010223	-0.017242	0.005341
5.059	-0.15137	0.013733	-0.011444	-0.007019	0.001373	-0.019989	-0.028992	-0.41122	0.007172	0.008698	-0.00946	0.010986	0.007782	0.008087	0.012054	0.09491	-0.06897	-0.008392	0.0737	0.12848	0.040588	-0.23621	-0.014191	-0.1384	-0.043182	0.14847	-0.003052	-0.093689	-0.007324	-0.017548	-0.005188	0.031433
5.06	-0.064545	0.007477	-0.016632	0.022583	-0.005341	-0.021515	-0.016785	-0.4155	0.003815	0.007629	-0.001831	0.010986	0.015259	0.007935	0.014648	0.02594	-0.03418	-0.016174	-0.35126	0.00885	-0.18036	-0.084076	-0.007935	-0.065308	-0.024109	0.12527	-0.006256	-0.072021	-0.011139	-0.014648	0.016327	0.36392
5.061	-0.051422	0.008545	-0.001526	0.020294	-0.011139	-0.028381	-0.019989	-0.42023	0.006561	0.010376	-0.008087	0.016632	0.003357	0.008087	0.014801	0.061188	-0.03418	-0.002289	-0.45883	-0.035248	-0.19592	-0.072174	-0.000305	-0.020599	-0.052948	0.071716	0.005951	-0.034637	-0.001373	-0.017548	0.018158	0.21744
5.062	-0.019226	0.009003	0.002747	0.002441	-0.013428	-0.017548	-0.018158	-0.43457	0.007782	0.014648	-0.009308	0.008698	0.005798	0.013428	0.014801	-0.021362	-0.032959	-0.013733	-0.5513	0.13321	-0.019684	-0.13412	-0.001678	-0.019073	-0.052795	0.11231	0.011292	0.042419	-0.027161	-0.021515	0.009766	-0.048523
5.063	-0.006256	0.007935	0.000305	0.00473	-0.010681	-0.021515	-0.015869	-0.43243	0.009308	0.007172	-0.00885	0.011749	0.004425	0.010529	0.014038	0.066833	-0.02655	0.000458	-0.48141	0.093536	0.073395	-0.35385	-0.008087	0.039978	-0.026703	0.12711	0.021515	0.046387	-0.036316	-0.025635	0.004272	-0.34958
5.064	-0.001373	-0.007629	0.006561	0.011902	-0.014954	-0.02594	-0.025177	-0.44708	0.008392	0.013733	-0.010986	0.00824	0.008087	0.007782	0.00885	0.029755	-0.035553	0.004425	-0.38757	0.12649	0.095978	-0.64102	-0.014343	0.043335	-0.040436	0.060577	0.012207	0.048676	-0.045624	-0.031586	0.005341	-0.24399
5.065	-0.12497	0.001678	-0.019989	0.005798	-0.012665	-0.034332	-0.020752	-0.45853	0.007782	0.01358	-0.016632	0.010376	0.007629	0.004425	0.012665	-0.046844	-0.032349	0.007477	-0.10605	0.14954	0.080566	-0.65384	-0.010986	-0.11551	-0.0354	0.084381	-0.005951	0.040741	-0.041962	-0.031586	0.009613	-0.10727
5.066	0.28519	0.00061	-0.020142	-0.01297	-0.002899	-0.028381	-0.016785	-0.45654	0.006409	0.001984	-0.00824	0.011597	0.008545	0.004272	0.015564	-0.006256	-0.04425	-0.000763	0.13031	0.22156	-0.057373	-0.29114	-0.007477	-0.10193	-0.035248	0.097504	-0.019379	0.036163	-0.037842	-0.029449	0.020905	-0.037842
5.067	-0.40314	0.005493	0.000458	-0.029297	0.006714	-0.026245	-0.009918	-0.44571	0.004883	0.002594	-0.008087	0.005646	0.015411	0.007629	0.015564	0.16647	-0.053101	0.001221	0.19196	0.071716	-0.33966	0.040436	-0.014343	0.002899	-0.008392	0.048065	0.000763	0.022888	-0.023499	-0.017853	0.027466	0.008392
5.068	-0.40283	0.001984	0.004883	-0.05127	0.015411	-0.039673	-0.007782	-0.43259	0.00351	0.001526	-0.007935	0.005493	0.00351	0.014496	0.01297	-0.17242	-0.050964	-0.009155	0.17624	0.15533	-0.35126	0.30395	-0.015869	-0.020447	0.009766	-0.12344	-0.013123	0.030823	0.031891	-0.01709	0.014954	0.021973
5.069	-0.23773	0.005035	0.013733	-0.037537	0.02243	-0.03067	-0.00473	-0.41962	0.007629	0.000305	-0.012817	0.013428	0.001678	0.009766	0.013428	-0.019531	-0.088196	-0.018158	-0.014648	0.027008	-0.17441	0.30594	-0.010376	0.025635	0.059662	-0.03418	-0.013885	-0.016327	0.051117	0.001678	-0.005035	0.010376
5.07	-0.060883	0.007019	0.000916	-0.041809	0.013275	-0.039825	-0.011444	-0.41992	0.013123	0.00061	-0.005035	0.00412	0.009918	0.005951	0.011292	-0.000763	-0.042877	-0.019226	-0.17746	0.050201	-0.079803	0.49774	-0.005188	-0.007324	0.070801	-0.1268	-0.00885	-0.058441	0.010071	0.001373	-0.010376	0.011902
